<?xml version="1.0" encoding="UTF-8" standalone="no"?>
<!DOCTYPE svg PUBLIC "-//W3C//DTD SVG 1.1//EN" "http://www.w3.org/Graphics/SVG/1.1/DTD/svg11.dtd">
<svg width="100%" height="100%" viewBox="0 0 1115 1500" version="1.1" xmlns="http://www.w3.org/2000/svg" xmlns:xlink="http://www.w3.org/1999/xlink" xml:space="preserve" xmlns:serif="http://www.serif.com/" style="fill-rule:evenodd;clip-rule:evenodd;stroke-linecap:round;stroke-linejoin:round;stroke-miterlimit:1.5;">
    <g transform="matrix(1,0,0,1,-217.386,-126.683)">
        <path d="M906.833,540.591L1221.65,524.942L1132.44,1114.46L1156.44,1121.37L1274.52,403.233L281.62,457.772L333.979,770.064L433.158,774.776L402.369,484.981L906.833,540.591Z" style="fill-opacity:0.11;"/>
    </g>
    <g transform="matrix(1,0,0,1,-287.386,-96.6828)">
        <g>
            <clipPath id="_clip1">
                <path d="M481.771,1196.12C478.69,1190.78 476.597,1184.92 475.594,1178.83C463.194,1104.06 346.521,396.54 334.042,320.865C333.365,316.765 331.159,313.073 327.868,310.536C307.525,294.664 293.293,271.122 293.293,251.953C293.293,184.106 456.819,102.362 836.756,102.362C1089.65,102.362 1394.58,153.783 1394.58,256.175C1394.58,273.528 1386.79,288.493 1376.5,298.297C1372.41,302.195 1366.52,307.855 1361.25,311.459C1357.25,314.2 1354.54,318.457 1353.75,323.245C1339.69,408.285 1226.15,1095.23 1212.13,1180.1C1210.97,1187.1 1208.18,1193.72 1203.99,1199.44C1181.85,1229.23 1097.37,1310.91 835.173,1310.91C572.577,1310.91 499.599,1226.66 481.771,1196.12Z"/>
            </clipPath>
            <g clip-path="url(#_clip1)">
                <g transform="matrix(1,0,0,1,-8,30)">
                    <g id="path10" transform="matrix(3.7137,0,0,3.71634,375.832,324.39)">
                        <path d="M123.318,130.303C122.168,132.795 120.899,135.595 119.585,138.575C114.94,149.099 109.796,161.905 107.917,170.109C107.242,173.031 106.824,176.652 106.832,180.667C106.832,182.255 106.917,183.924 107.052,185.624C113.619,188.037 120.712,189.364 128.119,189.377C134.862,189.364 148.268,186.745 154.331,184.729C152.16,183.495 150.047,182.507 148.3,180.875C138.565,171.78 130.574,156.133 123.318,130.303" style="fill:rgb(145,220,71);fill-rule:nonzero;"/>
                    </g>
                    <g id="path12" transform="matrix(3.7137,0,0,3.71634,375.832,324.39)">
                        <path d="M92.97,78.225C77.271,89.289 66.998,107.537 66.959,128.217C66.998,148.588 76.962,166.6 92.266,177.71C96.02,162.073 105.43,147.755 119.541,119.055C118.703,116.753 117.748,114.233 116.679,111.586C112.77,101.78 107.128,90.392 102.093,85.235C99.526,82.541 96.411,80.213 92.97,78.225" style="fill:rgb(145,220,71);fill-rule:nonzero;"/>
                    </g>
                    <g id="path14" transform="matrix(3.7137,0,0,3.71634,375.832,344.39)">
                        <path d="M197.997,191.893C188.041,192.302 178.296,189.729 169.846,184.701C160.972,190.666 139.848,196.325 128.119,196.325C87.535,196.325 54.636,163.431 54.631,122.835C54.631,100.808 66.251,80.269 81.603,66.802C81.603,66.802 76.817,62.835 64.829,62.441C23.078,61.071 31.879,95.487 -3.686,74.578C-12.507,69.393 -17.767,117.771 -22.348,124.953C-23.234,129.644 -17.899,186.948 -17.899,191.152C-17.899,255.037 -13.663,262.922 128.809,262.163C146.888,262.067 261.979,258.968 269.046,187.396C270.343,174.267 248.37,197.579 237.694,189.194C218.528,174.139 217.602,191.089 197.997,191.893Z" style="fill:rgb(145,220,71);fill-rule:nonzero;"/>
                        <clipPath id="_clip2">
                            <path d="M197.997,191.893C188.041,192.302 178.296,189.729 169.846,184.701C160.972,190.666 139.848,196.325 128.119,196.325C87.535,196.325 54.636,163.431 54.631,122.835C54.631,100.808 66.251,80.269 81.603,66.802C81.603,66.802 76.817,62.835 64.829,62.441C23.078,61.071 31.879,95.487 -3.686,74.578C-12.507,69.393 -17.767,117.771 -22.348,124.953C-23.234,129.644 -17.899,186.948 -17.899,191.152C-17.899,255.037 -13.663,262.922 128.809,262.163C146.888,262.067 261.979,258.968 269.046,187.396C270.343,174.267 248.37,197.579 237.694,189.194C218.528,174.139 217.602,191.089 197.997,191.893Z" clip-rule="nonzero"/>
                        </clipPath>
                        <g clip-path="url(#_clip2)">
                            <g transform="matrix(0.269273,0,0,0.269082,-80.1982,-98.0508)">
                                <path d="M402.408,437.657C402.408,437.657 469.701,1084.17 480.477,1187.71C481.465,1197.2 486.513,1205.81 494.321,1211.31C565.813,1261.35 692.271,1268.91 768.22,1269.39C936.622,1270.46 1068.02,1222.63 1111.1,1165.27C1115.74,1159.11 1118.84,1151.92 1120.14,1144.31C1128.69,1094.28 1168.86,858.876 1168.86,858.876L1214.88,1059.71L1089.94,1417.59L309.699,1423.67L276.738,616.313L402.408,437.657Z" style="fill:rgb(99,177,50);"/>
                            </g>
                        </g>
                    </g>
                    <g id="path16" transform="matrix(1,0,0,1,78,-60)">
                        <path d="M1006.57,705.289C1006.57,705.289 1188.98,762.259 1242.21,762.917C1235.66,805.869 1241.29,896.674 1240.8,900.554C1233.31,930.379 1211.67,1072.78 1185.44,1053.53C1110.7,998.706 1105.14,1072.89 1048.86,1078.28C1026.8,1080.4 1011.44,1081.99 958.513,1061.59C1008.62,1012.07 1046.56,936.938 1046.56,860.887L1046.58,860.887C1050.06,815.609 1031.44,742.006 1006.57,705.289ZM906.624,1046.42C962.913,1005.07 1000.65,936.169 1000.8,860.887L1000.78,860.887C1000.57,735.383 899.073,633.834 773.628,633.585C748.694,633.633 724.741,637.751 702.314,645.187C748.434,697.796 770.613,772.977 792.067,855.216C792.078,855.253 792.096,855.283 792.104,855.313C792.145,855.38 798.967,878.15 810.68,908.36C822.311,938.529 838.882,975.878 856.952,1003.1C868.818,1021.34 897.738,1042.58 906.624,1046.42ZM857.435,597.22C839.548,592.056 785.973,587.783 773.628,587.781C734.545,587.781 697.408,596.065 663.799,610.878C659.569,607.976 624.257,576.29 542.673,576.29C376.979,576.29 377.103,714.646 291.819,617.37C281.28,605.35 155.636,664.975 131.05,651.819C16.461,590.501 162.766,136.003 195.503,79.56L1398.57,135.048C1398.57,143.127 1312.38,448.33 1293.94,570.467C1276.62,541.267 1262.81,521.753 1262.81,521.753L1251.28,596.336C1251.28,596.336 1267.14,601.708 1281.47,632.78C1275,675.385 1258.62,731.241 1252.9,768.745C1195.1,783.338 1067.54,807.072 1006.57,705.289C997.6,690.309 935.639,619.799 857.435,597.22Z" style="fill:rgb(144,180,254);fill-rule:nonzero;"/>
                        <clipPath id="_clip3">
                            <path d="M1006.57,705.289C1006.57,705.289 1188.98,762.259 1242.21,762.917C1235.66,805.869 1241.29,896.674 1240.8,900.554C1233.31,930.379 1211.67,1072.78 1185.44,1053.53C1110.7,998.706 1105.14,1072.89 1048.86,1078.28C1026.8,1080.4 1011.44,1081.99 958.513,1061.59C1008.62,1012.07 1046.56,936.938 1046.56,860.887L1046.58,860.887C1050.06,815.609 1031.44,742.006 1006.57,705.289ZM906.624,1046.42C962.913,1005.07 1000.65,936.169 1000.8,860.887L1000.78,860.887C1000.57,735.383 899.073,633.834 773.628,633.585C748.694,633.633 724.741,637.751 702.314,645.187C748.434,697.796 770.613,772.977 792.067,855.216C792.078,855.253 792.096,855.283 792.104,855.313C792.145,855.38 798.967,878.15 810.68,908.36C822.311,938.529 838.882,975.878 856.952,1003.1C868.818,1021.34 897.738,1042.58 906.624,1046.42ZM857.435,597.22C839.548,592.056 785.973,587.783 773.628,587.781C734.545,587.781 697.408,596.065 663.799,610.878C659.569,607.976 624.257,576.29 542.673,576.29C376.979,576.29 377.103,714.646 291.819,617.37C281.28,605.35 155.636,664.975 131.05,651.819C16.461,590.501 162.766,136.003 195.503,79.56L1398.57,135.048C1398.57,143.127 1312.38,448.33 1293.94,570.467C1276.62,541.267 1262.81,521.753 1262.81,521.753L1251.28,596.336C1251.28,596.336 1267.14,601.708 1281.47,632.78C1275,675.385 1258.62,731.241 1252.9,768.745C1195.1,783.338 1067.54,807.072 1006.57,705.289C997.6,690.309 935.639,619.799 857.435,597.22Z" clip-rule="nonzero"/>
                        </clipPath>
                        <g clip-path="url(#_clip3)">
                            <path d="M225.485,265.63L216.36,292.779L280.646,686.817L469.048,1120.64C469.048,1120.64 414.692,590.486 403.009,476.534C402.487,471.437 404.365,466.388 408.09,462.872C411.816,459.356 416.966,457.773 422.023,458.589C598.854,486.308 935.434,511.181 1202.65,433.595C1207.49,432.16 1212.72,433.271 1216.56,436.547C1220.4,439.822 1222.32,444.818 1221.66,449.82C1206.63,563.886 1140.55,1065.11 1140.55,1065.11L1271.61,1103.63L1311.59,478.76C1345.37,385.222 1356.78,297.057 1313.66,250.743C1317.04,256.849 1324.17,265.653 1321.98,277.688C1307.93,354.808 1065.41,402.111 792.068,406.265C504.187,410.64 218.947,355.265 225.485,265.63Z" style="fill:rgb(88,129,216);"/>
                        </g>
                    </g>
                    <g transform="matrix(1,0,0,1,78,-60)">
                        <path d="M322.629,328.054C598.999,402.792 970.983,391.816 1235.48,319.378C1000.84,220.945 465.511,241.564 322.629,328.054Z" style="fill:none;"/>
                    </g>
                </g>
            </g>
        </g>
    </g>
    <g transform="matrix(1,0,0,1,-217.386,-126.683)">
        <path d="M318.778,325.239C556.277,229.094 979.171,226.919 1234.97,321.526C1394.44,263.991 1229.46,150.088 780.525,150.088C284.638,150.088 167.326,269.387 318.778,325.239Z" style="fill:rgb(88,129,216);"/>
    </g>
    <g>
        <g transform="matrix(1.1135,-0.00092003,0.00147593,1.7863,24.1335,-12.2584)">
            <ellipse cx="479.426" cy="85.35" rx="466.617" ry="69.199" style="fill:none;"/>
            <clipPath id="_clip4">
                <ellipse cx="479.426" cy="85.35" rx="466.617" ry="69.199"/>
            </clipPath>
            <g clip-path="url(#_clip4)">
                <g transform="matrix(1.45009,0.000746868,-0.00119814,0.903924,0.265112,-9.58731)">
                    <g>
                        <g transform="matrix(1,0,0,0.694646,-0.795289,51.9721)">
                            <path d="M253.32,162.774C241.166,116.503 418.241,110.368 409.968,162.774C395.337,127.205 272.32,128.168 253.32,162.774Z" style="fill:rgb(88,129,216);"/>
                        </g>
                        <g transform="matrix(-1.14837,9.7691e-17,-1.40634e-16,-0.797707,711.28,291.87)">
                            <path d="M253.32,162.774C240.761,119.301 417.752,113.728 409.968,162.774C395.337,127.205 272.32,128.168 253.32,162.774Z" style="fill:rgb(88,129,216);"/>
                        </g>
                        <g transform="matrix(-0.631853,5.37515e-17,-6.86018e-17,-0.389124,540.225,230.11)">
                            <path d="M253.32,162.774C251.128,116.172 414.346,115.717 409.968,162.774C392.268,132.3 269.121,133.48 253.32,162.774Z" style="fill:rgb(88,129,216);"/>
                        </g>
                        <g transform="matrix(0.473384,-8.05412e-17,1.37204e-16,0.389124,173.644,102.105)">
                            <path d="M253.32,162.774C251.128,116.172 414.346,115.717 409.968,162.774C392.268,132.3 269.121,133.48 253.32,162.774Z" style="fill:rgb(88,129,216);"/>
                        </g>
                        <g transform="matrix(1,0,0,0.694646,1.4962,51.9721)">
                            <path d="M209.659,180.978C216.466,193.234 233.864,202.759 256.558,209.105C278.554,215.257 305.526,218.423 332.655,218.194C355.16,218.005 377.774,215.48 397.744,210.386C420.51,204.579 443.568,193.083 448.658,175.021C431.993,193.971 412.537,197.85 393.154,202.337C372.95,207.014 352.876,209.423 332.939,209.573C308.864,209.756 284.988,206.646 261.321,200.263C243.987,195.588 226.765,189.157 209.659,180.978Z" style="fill:rgb(88,129,216);"/>
                        </g>
                        <g transform="matrix(1,0,0,0.694646,-2.31397,56.6366)">
                            <path d="M171.751,145.053C213.797,97.302 417.567,85.698 494.186,145.216C470.399,77.513 192.947,75.017 171.751,145.053Z" style="fill:rgb(88,129,216);"/>
                        </g>
                        <g transform="matrix(-1,8.50696e-17,-1.22465e-16,-0.694646,663.623,278.748)">
                            <path d="M171.751,145.053C213.267,91.755 416.915,78.774 494.186,145.216C470.399,77.513 192.947,75.017 171.751,145.053Z" style="fill:rgb(88,129,216);"/>
                        </g>
                        <g transform="matrix(-1.27302,1.08296e-16,-1.559e-16,-0.884301,754.531,307.74)">
                            <path d="M171.751,145.053C213.267,91.755 416.915,78.774 494.186,145.216C470.399,77.513 192.947,75.017 171.751,145.053Z" style="fill:rgb(88,129,216);"/>
                        </g>
                        <g transform="matrix(-1.10666,9.41428e-17,-1.35526e-16,-0.768734,703.143,296.466)">
                            <path d="M556.571,154.275C529.131,53.087 128.482,49.278 116.608,154.275C127.252,62.545 498.591,52.279 556.571,154.275Z" style="fill:rgb(88,129,216);"/>
                        </g>
                        <g transform="matrix(1.10666,-1.88286e-16,2.71052e-16,0.768734,-41.8342,43.9398)">
                            <path d="M556.571,154.275C529.131,56.637 128.482,52.383 116.608,154.275C123.18,110.023 240.699,84.314 353.229,88.2C444.04,91.336 531.324,114.956 556.571,154.275Z" style="fill:rgb(88,129,216);"/>
                        </g>
                    </g>
                    <g transform="matrix(1.21485,0,0,1.21485,-71.4218,-35.3735)">
                        <path d="M320.857,161.96C320.857,165.817 326.532,169.578 332.101,169.239C337.81,168.892 342.369,166.455 342.256,161.138C342.11,154.253 335.301,154.872 335.092,132.354C334.938,115.653 337.824,114.463 337.765,105.417C337.734,100.647 334.423,96.608 330.7,96.608C326.978,96.608 323.669,100.447 323.7,105.261C323.772,116.439 326.867,116.401 326.867,132.269C326.867,155.418 320.857,158.103 320.857,161.96Z" style="fill:rgb(88,129,216);"/>
                    </g>
                    <g transform="matrix(1.539,0,0,1.17913,-180.336,-30.5802)">
                        <ellipse cx="332.678" cy="165.04" rx="13.439" ry="5.487" style="fill:rgb(88,129,216);"/>
                    </g>
                    <g transform="matrix(0.754782,-3.37481e-35,-3.37481e-35,0.754782,82.9231,18.8554)">
                        <circle cx="328.216" cy="43.492" r="7.265" style="fill:rgb(144,180,254);stroke:rgb(99,177,50);stroke-width:0.82px;"/>
                    </g>
                </g>
            </g>
        </g>
        <g transform="matrix(1.65028,0,0,1.3735,-365.069,-85.368)">
            <path d="M559.138,179.242C559.138,217.867 556.341,224.592 556.341,229.1C556.341,232.682 556.503,235.22 560.085,235.22C563.666,235.22 564.35,232.4 564.35,228.819C564.35,222.292 560.127,223.71 560.127,178.838C560.127,148.847 564.224,150.525 564.224,142.241C564.224,139.138 561.858,137.469 559.722,137.469C557.585,137.469 554.718,138.561 554.776,142.599C554.868,148.981 559.138,149.735 559.138,179.242Z" style="fill:rgb(144,180,254);"/>
        </g>
        <g transform="matrix(1,0,0,1,1,-3)">
            <ellipse cx="559.633" cy="237.042" rx="18.44" ry="4.371" style="fill:rgb(144,180,254);"/>
        </g>
    </g>
    <g transform="matrix(1.56957,0,0,1.56957,-316.014,-698.729)">
        <g transform="matrix(1.59463,0,0,1.59463,-330.004,-738.494)">
            <g transform="matrix(1.59155,0,0,1.59155,-331.189,-732.659)">
                <circle cx="556.701" cy="1249.24" r="3.22" style="fill:rgb(99,177,50);"/>
            </g>
            <g transform="matrix(1.03763,0,0,1,-20.9144,0)">
                <path d="M558.692,1241.22L550.853,1241.14C552.91,1242.41 552.727,1249.47 551.462,1251.85L558.266,1251.87C557.261,1249.86 556.072,1242.72 558.692,1241.22Z" style="fill:rgb(99,177,50);"/>
            </g>
            <g transform="matrix(0.453165,-1.09095e-35,-1.09095e-35,0.453165,303.61,686.173)">
                <circle cx="554.952" cy="1254.92" r="5.736" style="fill:rgb(145,220,71);"/>
            </g>
        </g>
        <path d="M532.759,1096.13C532.759,1096.13 524.578,1032.51 524.578,1031.42C524.578,1021.62 538.134,1013.66 554.83,1013.66C571.527,1013.66 585.082,1021.62 585.082,1031.42C585.082,1033.41 576.09,1096.06 576.09,1096.13C576.09,1099.1 574.345,1101.84 571.423,1104L568.566,1125.28C580.979,1131.67 585.19,1143.61 585.19,1152.09C585.19,1164.01 579.296,1171.84 571.708,1177.48C570.555,1188.9 568.427,1231.45 568.427,1231.45C568.427,1237.1 564.542,1241.69 554.83,1241.69C545.118,1241.69 541.233,1237.1 541.233,1231.45C541.233,1231.45 539.088,1186.44 538.453,1177.87C529.236,1172.39 524.284,1161.45 524.45,1152.38C524.679,1139.89 531.828,1128.85 542.625,1124.53L539.803,1104.93C536.061,1102.64 532.759,1099.54 532.759,1096.13Z" style="fill:rgb(99,177,50);"/>
        <clipPath id="_clip5">
            <path d="M532.759,1096.13C532.759,1096.13 524.578,1032.51 524.578,1031.42C524.578,1021.62 538.134,1013.66 554.83,1013.66C571.527,1013.66 585.082,1021.62 585.082,1031.42C585.082,1033.41 576.09,1096.06 576.09,1096.13C576.09,1099.1 574.345,1101.84 571.423,1104L568.566,1125.28C580.979,1131.67 585.19,1143.61 585.19,1152.09C585.19,1164.01 579.296,1171.84 571.708,1177.48C570.555,1188.9 568.427,1231.45 568.427,1231.45C568.427,1237.1 564.542,1241.69 554.83,1241.69C545.118,1241.69 541.233,1237.1 541.233,1231.45C541.233,1231.45 539.088,1186.44 538.453,1177.87C529.236,1172.39 524.284,1161.45 524.45,1152.38C524.679,1139.89 531.828,1128.85 542.625,1124.53L539.803,1104.93C536.061,1102.64 532.759,1099.54 532.759,1096.13Z"/>
        </clipPath>
        <g clip-path="url(#_clip5)">
            <path d="M542.424,1045.56C542.354,1044.6 541.781,1043.75 540.918,1043.33C536.22,1040.93 530.407,1035.63 530.407,1030.89C530.407,1021.97 542.559,1018.15 554.692,1017.69C566.079,1017.25 581.158,1021.88 581.187,1030.94C581.207,1037 577.975,1040.13 574.386,1042.33C573.667,1042.77 573.195,1043.52 573.109,1044.36C572.288,1052.37 568.123,1093.2 567.222,1102.03C567.114,1103.09 566.411,1104 565.41,1104.37C559.072,1106.7 553.146,1106.74 547.674,1105.24C547.138,1105.09 546.754,1104.62 546.714,1104.06C546.211,1097.24 543.07,1054.37 542.424,1045.56Z" style="fill:rgb(145,220,71);"/>
            <g transform="matrix(1,0,0,1,0,-0.711822)">
                <path d="M549.914,1114.01C549.662,1113.94 549.392,1114 549.194,1114.17C548.996,1114.34 548.898,1114.6 548.931,1114.86C549.293,1117.7 550.208,1124.8 550.495,1127.03C550.551,1127.47 550.826,1127.84 551.223,1128.03C554.744,1129.66 558.208,1129.67 561.105,1128.05C561.45,1127.85 561.684,1127.51 561.738,1127.11C562.037,1124.95 563.049,1117.53 563.446,1114.62C563.481,1114.36 563.383,1114.11 563.185,1113.94C562.988,1113.77 562.718,1113.71 562.468,1113.78C558.624,1114.88 554.447,1115.25 549.914,1114.01Z" style="fill:rgb(145,220,71);"/>
            </g>
        </g>
    </g>
    <g transform="matrix(1,0,0,1,-1,0)">
        <path d="M560.197,1278.86C556.285,1273.88 557.178,1264.45 558.019,1261.17C558.205,1260.44 557.729,1259.05 556.124,1259.05C554.52,1259.05 554.316,1260.45 554.427,1261.17C555.01,1264.91 556.98,1274.34 552.332,1278.93L560.197,1278.86Z" style="fill:rgb(145,220,71);"/>
    </g>
    <path d="M543.936,1093.74C544.21,1088.97 549.011,1083.12 551.981,1082.12C554.189,1081.38 557.841,1081.4 560.034,1082.12C565.877,1084.04 573.911,1094.71 572.973,1107.72C572.973,1107.72 572.973,1107.72 572.971,1107.72C572.544,1108.03 566.244,1228.08 565.801,1243.06C565.809,1243.92 565.326,1244.7 564.559,1245.08C559.845,1247.4 555.931,1247.88 549.256,1246.6C548.206,1246.41 547.44,1245.5 547.432,1244.44C546.622,1134.28 552.165,1105.15 544.65,1095.82C544.155,1095.23 543.893,1094.48 543.936,1093.74Z" style="fill:rgb(145,220,71);"/>
    <g transform="matrix(1.32944,0,0,1.32944,-206.592,-341.33)">
        <g transform="matrix(160,0,0,160,280.84,1371.79)">
            <path d="M0.132,-0.091L0.132,-0.572C0.132,-0.61 0.102,-0.628 0.04,-0.628C0.035,-0.628 0.033,-0.635 0.033,-0.647C0.033,-0.659 0.035,-0.666 0.04,-0.666C0.055,-0.664 0.098,-0.663 0.171,-0.663C0.243,-0.663 0.287,-0.664 0.302,-0.666C0.306,-0.666 0.309,-0.659 0.309,-0.647C0.309,-0.635 0.306,-0.628 0.302,-0.628C0.241,-0.628 0.21,-0.61 0.21,-0.572L0.21,-0.359C0.21,-0.351 0.213,-0.348 0.217,-0.348C0.226,-0.348 0.237,-0.354 0.25,-0.368C0.263,-0.381 0.271,-0.39 0.275,-0.396L0.418,-0.574C0.431,-0.591 0.438,-0.603 0.438,-0.612C0.438,-0.623 0.427,-0.628 0.406,-0.628C0.402,-0.628 0.399,-0.635 0.399,-0.647C0.399,-0.659 0.402,-0.666 0.406,-0.666C0.42,-0.664 0.45,-0.663 0.494,-0.663C0.538,-0.663 0.568,-0.664 0.583,-0.666C0.588,-0.666 0.59,-0.659 0.59,-0.647C0.59,-0.635 0.588,-0.628 0.583,-0.628C0.555,-0.628 0.533,-0.623 0.516,-0.612C0.499,-0.601 0.488,-0.592 0.483,-0.586L0.309,-0.375C0.307,-0.373 0.306,-0.371 0.306,-0.368C0.306,-0.365 0.307,-0.362 0.309,-0.36L0.532,-0.084C0.56,-0.051 0.6,-0.034 0.652,-0.034C0.657,-0.034 0.659,-0.028 0.659,-0.015C0.659,-0.003 0.657,0.003 0.652,0.003C0.627,0.001 0.583,0 0.521,0C0.459,0 0.416,0.001 0.391,0.003C0.386,0.003 0.384,-0.003 0.384,-0.015C0.384,-0.027 0.386,-0.033 0.391,-0.034C0.422,-0.034 0.438,-0.043 0.438,-0.063C0.438,-0.07 0.433,-0.08 0.425,-0.091L0.294,-0.263C0.277,-0.285 0.261,-0.299 0.248,-0.305C0.234,-0.312 0.225,-0.315 0.219,-0.315C0.213,-0.315 0.21,-0.311 0.21,-0.304L0.21,-0.091C0.21,-0.053 0.24,-0.034 0.298,-0.034C0.303,-0.034 0.305,-0.028 0.305,-0.015C0.305,-0.003 0.303,0.003 0.298,0.003C0.273,0.001 0.231,0 0.171,0C0.112,0 0.069,0.001 0.044,0.003C0.04,0.003 0.038,-0.003 0.038,-0.015C0.038,-0.027 0.04,-0.033 0.044,-0.034C0.103,-0.034 0.132,-0.053 0.132,-0.091Z" style="fill:rgb(36,41,47);fill-rule:nonzero;"/>
        </g>
        <g transform="matrix(160,0,0,160,385.136,1371.79)">
            <path d="M0.228,0.004C0.203,0.001 0.173,0 0.137,0C0.101,0 0.069,0.001 0.043,0.004C0.038,0.004 0.036,-0.001 0.036,-0.01C0.036,-0.019 0.038,-0.024 0.043,-0.024C0.08,-0.024 0.098,-0.037 0.098,-0.062L0.098,-0.279C0.098,-0.324 0.083,-0.346 0.053,-0.346C0.048,-0.346 0.045,-0.351 0.045,-0.36C0.045,-0.369 0.048,-0.374 0.053,-0.374C0.064,-0.374 0.08,-0.379 0.101,-0.39C0.122,-0.401 0.138,-0.411 0.148,-0.419C0.159,-0.427 0.166,-0.431 0.17,-0.431C0.174,-0.431 0.176,-0.429 0.176,-0.423C0.174,-0.388 0.173,-0.361 0.173,-0.342L0.173,-0.062C0.173,-0.037 0.191,-0.024 0.228,-0.024C0.233,-0.024 0.235,-0.019 0.235,-0.01C0.235,-0.001 0.233,0.004 0.228,0.004ZM0.073,-0.565C0.073,-0.58 0.078,-0.592 0.088,-0.602C0.098,-0.612 0.11,-0.617 0.125,-0.617C0.14,-0.617 0.152,-0.612 0.163,-0.602C0.173,-0.592 0.178,-0.58 0.178,-0.565C0.178,-0.55 0.173,-0.538 0.163,-0.527C0.152,-0.517 0.14,-0.512 0.125,-0.512C0.11,-0.512 0.098,-0.517 0.088,-0.527C0.078,-0.538 0.073,-0.55 0.073,-0.565Z" style="fill:rgb(36,41,47);fill-rule:nonzero;"/>
        </g>
        <g transform="matrix(160,0,0,160,426.074,1371.79)">
            <path d="M0.173,-0.062C0.173,-0.037 0.192,-0.024 0.231,-0.024C0.236,-0.024 0.238,-0.019 0.238,-0.01C0.238,-0.001 0.236,0.004 0.231,0.004C0.206,0.001 0.174,0 0.137,0C0.099,0 0.067,0.001 0.041,0.004C0.036,0.004 0.034,-0.001 0.034,-0.01C0.034,-0.019 0.036,-0.024 0.041,-0.024C0.079,-0.024 0.098,-0.037 0.098,-0.062L0.098,-0.572C0.098,-0.617 0.083,-0.64 0.053,-0.64C0.048,-0.64 0.045,-0.645 0.045,-0.654C0.045,-0.663 0.048,-0.667 0.053,-0.667C0.068,-0.667 0.095,-0.679 0.134,-0.703C0.145,-0.71 0.153,-0.715 0.158,-0.719C0.163,-0.723 0.168,-0.725 0.171,-0.725C0.174,-0.725 0.176,-0.723 0.176,-0.718C0.174,-0.699 0.173,-0.683 0.173,-0.67L0.173,-0.062Z" style="fill:rgb(36,41,47);fill-rule:nonzero;"/>
        </g>
        <g transform="matrix(160,0,0,160,467.011,1371.79)">
            <path d="M0.032,-0.201C0.032,-0.262 0.054,-0.315 0.097,-0.359C0.14,-0.403 0.195,-0.425 0.264,-0.425C0.287,-0.425 0.306,-0.423 0.32,-0.418C0.324,-0.417 0.327,-0.416 0.329,-0.416C0.334,-0.416 0.336,-0.42 0.336,-0.428L0.336,-0.572C0.336,-0.617 0.321,-0.64 0.291,-0.64C0.285,-0.64 0.283,-0.645 0.283,-0.654C0.283,-0.663 0.285,-0.667 0.291,-0.667C0.299,-0.667 0.315,-0.673 0.338,-0.685C0.361,-0.697 0.378,-0.706 0.388,-0.714C0.399,-0.721 0.406,-0.725 0.409,-0.725C0.412,-0.725 0.414,-0.723 0.414,-0.72C0.414,-0.716 0.413,-0.706 0.412,-0.688C0.411,-0.671 0.411,-0.655 0.411,-0.641L0.411,-0.113C0.411,-0.064 0.424,-0.04 0.451,-0.04C0.454,-0.04 0.459,-0.041 0.465,-0.042C0.471,-0.042 0.474,-0.043 0.475,-0.043C0.476,-0.043 0.477,-0.042 0.478,-0.04C0.479,-0.038 0.48,-0.035 0.481,-0.031C0.482,-0.027 0.482,-0.024 0.482,-0.02C0.482,-0.017 0.481,-0.015 0.479,-0.015C0.477,-0.015 0.469,-0.014 0.454,-0.011C0.439,-0.008 0.418,-0.003 0.39,0.003C0.362,0.01 0.347,0.014 0.344,0.016C0.339,0.016 0.336,0.008 0.336,-0.008L0.336,-0.028C0.336,-0.035 0.334,-0.039 0.33,-0.039C0.327,-0.039 0.322,-0.037 0.317,-0.032C0.286,-0.003 0.254,0.011 0.221,0.011C0.157,0.011 0.11,-0.009 0.079,-0.049C0.048,-0.088 0.032,-0.139 0.032,-0.201ZM0.336,-0.097L0.336,-0.326C0.336,-0.351 0.332,-0.366 0.325,-0.372C0.306,-0.388 0.282,-0.396 0.253,-0.396C0.209,-0.396 0.175,-0.378 0.15,-0.342C0.124,-0.305 0.112,-0.263 0.112,-0.215C0.112,-0.167 0.125,-0.125 0.152,-0.089C0.179,-0.054 0.211,-0.036 0.246,-0.036C0.271,-0.036 0.293,-0.043 0.31,-0.056C0.327,-0.069 0.336,-0.083 0.336,-0.097Z" style="fill:rgb(36,41,47);fill-rule:nonzero;"/>
        </g>
        <g transform="matrix(160,0,0,160,543.73,1371.79)">
            <path d="M0.042,-0.21C0.042,-0.268 0.06,-0.319 0.097,-0.361C0.134,-0.404 0.175,-0.425 0.221,-0.425C0.267,-0.425 0.304,-0.409 0.333,-0.377C0.361,-0.345 0.375,-0.319 0.375,-0.299C0.375,-0.279 0.367,-0.268 0.35,-0.268L0.131,-0.268C0.121,-0.268 0.116,-0.257 0.116,-0.236C0.116,-0.184 0.129,-0.139 0.154,-0.102C0.178,-0.065 0.213,-0.046 0.257,-0.046C0.29,-0.046 0.322,-0.056 0.355,-0.075C0.357,-0.076 0.358,-0.077 0.36,-0.077C0.364,-0.077 0.368,-0.075 0.371,-0.071C0.373,-0.069 0.374,-0.066 0.374,-0.061C0.374,-0.059 0.373,-0.058 0.372,-0.057C0.321,-0.012 0.27,0.011 0.22,0.011C0.17,0.011 0.128,-0.011 0.094,-0.056C0.059,-0.101 0.042,-0.153 0.042,-0.21ZM0.127,-0.308C0.127,-0.303 0.131,-0.301 0.139,-0.301L0.296,-0.301C0.301,-0.301 0.303,-0.304 0.303,-0.309C0.303,-0.323 0.294,-0.341 0.277,-0.363C0.259,-0.385 0.24,-0.396 0.221,-0.396C0.2,-0.396 0.182,-0.389 0.166,-0.375C0.151,-0.361 0.138,-0.341 0.129,-0.315C0.128,-0.312 0.127,-0.31 0.127,-0.308Z" style="fill:rgb(36,41,47);fill-rule:nonzero;"/>
        </g>
        <g transform="matrix(160,0,0,160,609.199,1371.79)">
            <path d="M0.284,-0.425C0.294,-0.425 0.303,-0.423 0.31,-0.419C0.316,-0.416 0.323,-0.41 0.329,-0.403C0.334,-0.395 0.337,-0.384 0.337,-0.37C0.337,-0.366 0.336,-0.361 0.333,-0.354C0.329,-0.346 0.324,-0.34 0.317,-0.335C0.311,-0.33 0.304,-0.327 0.297,-0.327C0.29,-0.327 0.279,-0.331 0.264,-0.339C0.249,-0.347 0.238,-0.351 0.23,-0.351C0.211,-0.351 0.194,-0.341 0.18,-0.322C0.167,-0.302 0.16,-0.275 0.16,-0.241L0.16,-0.062C0.16,-0.037 0.184,-0.024 0.233,-0.024C0.238,-0.024 0.24,-0.019 0.24,-0.01C0.24,-0.001 0.238,0.004 0.233,0.004C0.206,0.001 0.172,0 0.131,0C0.09,0 0.056,0.001 0.029,0.004C0.024,0.004 0.022,-0.001 0.022,-0.01C0.022,-0.019 0.024,-0.024 0.029,-0.024C0.066,-0.024 0.085,-0.037 0.085,-0.062L0.085,-0.288C0.085,-0.324 0.071,-0.343 0.044,-0.343C0.038,-0.343 0.036,-0.347 0.036,-0.356C0.036,-0.366 0.038,-0.37 0.044,-0.37C0.056,-0.37 0.074,-0.378 0.097,-0.394C0.12,-0.409 0.135,-0.419 0.14,-0.424C0.145,-0.429 0.15,-0.431 0.153,-0.431C0.159,-0.431 0.162,-0.427 0.162,-0.419C0.16,-0.403 0.16,-0.388 0.16,-0.375C0.16,-0.362 0.162,-0.355 0.166,-0.355C0.171,-0.355 0.175,-0.359 0.18,-0.365C0.209,-0.405 0.243,-0.425 0.284,-0.425Z" style="fill:rgb(36,41,47);fill-rule:nonzero;"/>
        </g>
        <g transform="matrix(160,0,0,160,663.574,1371.79)">
            <path d="M0.324,-0.353C0.333,-0.362 0.337,-0.37 0.337,-0.376C0.337,-0.387 0.321,-0.392 0.29,-0.392C0.285,-0.392 0.283,-0.396 0.283,-0.405C0.283,-0.414 0.285,-0.418 0.29,-0.418C0.32,-0.416 0.351,-0.415 0.383,-0.415C0.415,-0.415 0.443,-0.416 0.468,-0.418C0.472,-0.418 0.475,-0.414 0.475,-0.405C0.475,-0.396 0.472,-0.392 0.468,-0.392C0.438,-0.392 0.411,-0.381 0.388,-0.359L0.284,-0.259C0.278,-0.253 0.275,-0.247 0.275,-0.242C0.275,-0.237 0.278,-0.231 0.283,-0.225L0.44,-0.046C0.453,-0.031 0.474,-0.024 0.503,-0.024C0.507,-0.024 0.51,-0.019 0.51,-0.01C0.51,-0.001 0.507,0.004 0.503,0.004C0.472,0.001 0.439,0 0.404,0C0.369,0 0.337,0.001 0.306,0.004C0.302,0.004 0.299,-0.001 0.299,-0.01C0.299,-0.019 0.302,-0.024 0.306,-0.024C0.333,-0.024 0.346,-0.029 0.346,-0.038C0.346,-0.042 0.341,-0.05 0.331,-0.062L0.223,-0.186C0.218,-0.192 0.212,-0.196 0.206,-0.198C0.199,-0.2 0.194,-0.201 0.189,-0.201C0.184,-0.201 0.18,-0.2 0.177,-0.197C0.174,-0.195 0.173,-0.189 0.173,-0.18L0.173,-0.062C0.173,-0.037 0.192,-0.024 0.231,-0.024C0.236,-0.024 0.238,-0.019 0.238,-0.01C0.238,-0.001 0.236,0.004 0.231,0.004C0.197,0.001 0.165,0 0.134,0C0.104,0 0.073,0.001 0.042,0.004C0.038,0.004 0.036,-0.001 0.036,-0.01C0.036,-0.019 0.038,-0.024 0.042,-0.024C0.079,-0.024 0.098,-0.037 0.098,-0.062L0.098,-0.574C0.098,-0.619 0.083,-0.641 0.053,-0.641C0.048,-0.641 0.045,-0.646 0.045,-0.655C0.045,-0.664 0.048,-0.668 0.053,-0.668C0.064,-0.668 0.08,-0.674 0.101,-0.685C0.122,-0.696 0.138,-0.706 0.148,-0.714C0.159,-0.722 0.166,-0.726 0.17,-0.726C0.174,-0.726 0.176,-0.725 0.176,-0.722C0.176,-0.72 0.175,-0.71 0.174,-0.693C0.173,-0.676 0.173,-0.657 0.173,-0.637L0.173,-0.255C0.173,-0.241 0.18,-0.234 0.195,-0.234C0.21,-0.234 0.221,-0.238 0.228,-0.245L0.324,-0.353Z" style="fill:rgb(36,41,47);fill-rule:nonzero;"/>
        </g>
        <g transform="matrix(160,0,0,160,742.324,1371.79)">
            <path d="M0.228,0.004C0.203,0.001 0.173,0 0.137,0C0.101,0 0.069,0.001 0.043,0.004C0.038,0.004 0.036,-0.001 0.036,-0.01C0.036,-0.019 0.038,-0.024 0.043,-0.024C0.08,-0.024 0.098,-0.037 0.098,-0.062L0.098,-0.279C0.098,-0.324 0.083,-0.346 0.053,-0.346C0.048,-0.346 0.045,-0.351 0.045,-0.36C0.045,-0.369 0.048,-0.374 0.053,-0.374C0.064,-0.374 0.08,-0.379 0.101,-0.39C0.122,-0.401 0.138,-0.411 0.148,-0.419C0.159,-0.427 0.166,-0.431 0.17,-0.431C0.174,-0.431 0.176,-0.429 0.176,-0.423C0.174,-0.388 0.173,-0.361 0.173,-0.342L0.173,-0.062C0.173,-0.037 0.191,-0.024 0.228,-0.024C0.233,-0.024 0.235,-0.019 0.235,-0.01C0.235,-0.001 0.233,0.004 0.228,0.004ZM0.073,-0.565C0.073,-0.58 0.078,-0.592 0.088,-0.602C0.098,-0.612 0.11,-0.617 0.125,-0.617C0.14,-0.617 0.152,-0.612 0.163,-0.602C0.173,-0.592 0.178,-0.58 0.178,-0.565C0.178,-0.55 0.173,-0.538 0.163,-0.527C0.152,-0.517 0.14,-0.512 0.125,-0.512C0.11,-0.512 0.098,-0.517 0.088,-0.527C0.078,-0.538 0.073,-0.55 0.073,-0.565Z" style="fill:rgb(36,41,47);fill-rule:nonzero;"/>
        </g>
        <g transform="matrix(160,0,0,160,783.261,1371.79)">
            <path d="M0.438,-0.062C0.438,-0.037 0.456,-0.024 0.494,-0.024C0.498,-0.024 0.5,-0.019 0.5,-0.01C0.5,-0.001 0.498,0.004 0.494,0.004C0.469,0.001 0.438,0 0.402,0C0.367,0 0.335,0.001 0.309,0.004C0.305,0.004 0.302,-0.001 0.302,-0.01C0.302,-0.019 0.305,-0.024 0.309,-0.024C0.345,-0.024 0.363,-0.037 0.363,-0.062L0.363,-0.259C0.363,-0.286 0.36,-0.309 0.356,-0.328C0.351,-0.347 0.344,-0.361 0.333,-0.369C0.323,-0.377 0.306,-0.381 0.28,-0.381C0.267,-0.381 0.254,-0.378 0.243,-0.373C0.232,-0.367 0.221,-0.36 0.211,-0.353C0.2,-0.345 0.191,-0.336 0.184,-0.324C0.177,-0.313 0.173,-0.301 0.173,-0.288L0.173,-0.062C0.173,-0.037 0.19,-0.024 0.225,-0.024C0.23,-0.024 0.232,-0.019 0.232,-0.01C0.232,-0.001 0.23,0.004 0.225,0.004C0.2,0.001 0.17,0 0.134,0C0.098,0 0.067,0.001 0.042,0.004C0.037,0.004 0.035,-0.001 0.035,-0.01C0.035,-0.019 0.037,-0.024 0.042,-0.024C0.079,-0.024 0.098,-0.037 0.098,-0.062L0.098,-0.28C0.098,-0.322 0.084,-0.343 0.057,-0.343C0.052,-0.343 0.049,-0.347 0.049,-0.356C0.049,-0.366 0.052,-0.37 0.057,-0.37C0.069,-0.37 0.084,-0.375 0.1,-0.385C0.116,-0.395 0.13,-0.405 0.142,-0.415C0.154,-0.426 0.163,-0.431 0.167,-0.431C0.172,-0.431 0.174,-0.429 0.174,-0.424C0.174,-0.419 0.174,-0.412 0.173,-0.403C0.173,-0.394 0.172,-0.387 0.172,-0.38C0.172,-0.373 0.175,-0.37 0.18,-0.37C0.182,-0.37 0.185,-0.371 0.187,-0.373C0.222,-0.408 0.264,-0.425 0.313,-0.425C0.362,-0.425 0.398,-0.401 0.421,-0.353C0.432,-0.332 0.438,-0.291 0.438,-0.232L0.438,-0.062Z" style="fill:rgb(36,41,47);fill-rule:nonzero;"/>
        </g>
    </g>
</svg>
